<?xml version="1.0" standalone="no"?>
<!DOCTYPE svg PUBLIC "-//W3C//DTD SVG 20010904//EN"
 "http://www.w3.org/TR/2001/REC-SVG-20010904/DTD/svg10.dtd">
<svg version="1.0" xmlns="http://www.w3.org/2000/svg"
 width="489.000000pt" height="204.000000pt" viewBox="0 0 489.000000 204.000000"
 preserveAspectRatio="xMidYMid meet">

<g transform="translate(0.000000,204.000000) scale(0.100000,-0.100000)"
fill="#000000" stroke="none">
<path d="M874 1718 l-19 -23 23 19 c21 18 27 26 19 26 -2 0 -12 -10 -23 -22z"/>
<path d="M869 1643 c-13 -16 -12 -17 4 -4 9 7 17 15 17 17 0 8 -8 3 -21 -13z"/>
<path d="M789 1633 c-13 -16 -12 -17 4 -4 9 7 17 15 17 17 0 8 -8 3 -21 -13z"/>
<path d="M769 1543 c-13 -16 -12 -17 4 -4 9 7 17 15 17 17 0 8 -8 3 -21 -13z"/>
<path d="M986 1541 c-3 -4 4 -7 14 -6 27 2 33 10 10 12 -11 1 -22 -2 -24 -6z"/>
<path d="M629 1413 c-13 -16 -12 -17 4 -4 9 7 17 15 17 17 0 8 -8 3 -21 -13z"/>
<path d="M530 1400 c-6 -11 -8 -20 -6 -20 3 0 10 9 16 20 6 11 8 20 6 20 -3 0
-10 -9 -16 -20z"/>
<path d="M501 1314 c0 -11 3 -14 6 -6 3 7 2 16 -1 19 -3 4 -6 -2 -5 -13z"/>
<path d="M780 1180 c6 -11 13 -20 16 -20 2 0 0 9 -6 20 -6 11 -13 20 -16 20
-2 0 0 -9 6 -20z"/>
<path d="M628 1120 c6 -8 12 -18 12 -23 0 -4 -6 -5 -12 -1 -7 4 9 -16 37 -45
27 -28 51 -51 54 -51 6 0 -40 52 -61 68 -9 7 -15 18 -12 26 3 7 -3 19 -13 26
-15 12 -16 12 -5 0z"/>
<path d="M872 1015 c0 -16 2 -22 5 -12 2 9 2 23 0 30 -3 6 -5 -1 -5 -18z"/>
<path d="M3761 959 c-56 -40 -83 -104 -101 -234 -5 -33 -16 -87 -25 -120 -9
-33 -19 -77 -21 -99 -3 -21 -14 -72 -25 -115 -11 -42 -21 -93 -23 -113 l-3
-36 58 -4 c66 -3 60 -13 79 123 6 37 18 93 28 125 l18 59 202 3 203 2 -33 48
c-18 26 -37 50 -43 54 -5 4 -76 8 -157 8 -160 0 -159 -1 -138 56 6 15 12 47
15 73 3 34 11 52 30 69 25 21 33 22 220 22 l193 0 16 46 c9 26 13 50 10 55 -3
5 -108 9 -233 9 l-228 0 -42 -31z"/>
<path d="M1251 965 c3 -2 14 -6 25 -8 27 -4 46 -18 72 -51 26 -34 28 -75 6
-119 -19 -38 -104 -127 -121 -127 -6 0 -15 -5 -18 -10 -10 -16 74 20 120 51
64 43 85 79 85 144 0 62 -17 86 -76 111 -31 13 -104 20 -93 9z"/>
<path d="M320 918 c-25 -11 -54 -22 -65 -24 -10 -2 -27 -12 -38 -22 -18 -18
-17 -19 50 -40 63 -20 87 -21 333 -19 233 2 278 5 369 25 58 12 107 25 110 29
3 3 -7 2 -24 -2 -16 -4 -97 -11 -180 -16 -82 -4 -195 -11 -250 -14 -62 -4
-136 -1 -195 7 -85 12 -95 16 -98 35 -2 17 6 27 35 42 51 27 14 27 -47 -1z"/>
<path d="M2533 783 c15 -2 37 -2 50 0 12 2 0 4 -28 4 -27 0 -38 -2 -22 -4z"/>
<path d="M2900 783 c24 -2 48 -10 53 -16 6 -8 7 -7 4 3 -2 11 -18 15 -53 16
l-49 1 45 -4z"/>
<path d="M4107 763 c10 -16 20 -30 24 -33 3 -3 23 -32 44 -65 21 -33 41 -62
44 -65 4 -3 17 -19 29 -36 l21 -31 -103 -109 c-56 -60 -117 -126 -135 -146
l-33 -38 73 0 74 0 91 95 c50 52 94 95 97 95 6 0 37 -42 72 -99 6 -9 23 -33
38 -53 28 -37 30 -38 93 -38 61 0 64 1 54 19 -5 11 -16 25 -23 33 -7 7 -30 40
-52 73 -21 33 -42 62 -47 63 -4 2 -8 8 -8 14 0 6 -11 24 -25 40 l-25 30 36 42
c21 22 79 85 131 139 l94 97 -79 0 -79 0 -82 -85 c-45 -47 -85 -85 -89 -85 -4
1 -32 39 -62 85 l-54 85 -68 0 -68 0 17 -27z"/>
<path d="M3213 733 c9 -2 23 -2 30 0 6 3 -1 5 -18 5 -16 0 -22 -2 -12 -5z"/>
<path d="M388 714 c-40 -21 -36 -50 10 -72 44 -22 93 -27 277 -27 188 0 257 5
315 24 47 16 48 16 26 32 -20 15 -29 15 -96 2 -53 -10 -132 -13 -273 -11 -195
3 -199 3 -218 27 -10 12 -16 27 -13 32 7 12 4 11 -28 -7z"/>
<path d="M3330 706 c0 -2 8 -10 18 -17 15 -13 16 -12 3 4 -13 16 -21 21 -21
13z"/>
<path d="M2394 470 c0 -118 2 -167 3 -108 2 60 2 156 0 215 -1 60 -3 11 -3
-107z"/>
<path d="M2303 610 c0 -25 2 -35 4 -22 2 12 2 32 0 45 -2 12 -4 2 -4 -23z"/>
<path d="M432 504 c-27 -19 -28 -28 -2 -52 56 -52 304 -72 455 -38 85 20 106
24 118 25 20 2 3 20 -33 34 -29 11 -49 13 -77 6 -21 -5 -116 -9 -211 -9 -171
0 -173 0 -198 25 -29 30 -24 29 -52 9z"/>
<path d="M2014 488 l-19 -23 23 19 c12 11 22 21 22 23 0 8 -8 2 -26 -19z"/>
<path d="M2300 432 l5 -77 3 69 c2 38 -1 73 -5 77 -4 4 -6 -27 -3 -69z"/>
<path d="M3154 468 l-19 -23 23 19 c12 11 22 21 22 23 0 8 -8 2 -26 -19z"/>
<path d="M1985 449 c-4 -6 -5 -12 -2 -15 2 -3 7 2 10 11 7 17 1 20 -8 4z"/>
<path d="M2061 394 c0 -11 3 -14 6 -6 3 7 2 16 -1 19 -3 4 -6 -2 -5 -13z"/>
<path d="M118 348 c-57 -30 -72 -47 -57 -65 15 -18 97 -41 149 -42 25 0 88 -6
140 -13 124 -16 480 -16 595 0 50 7 108 14 130 16 40 4 155 33 163 41 7 6 -96
-5 -143 -15 -156 -35 -659 -38 -778 -6 -32 9 -69 16 -83 16 -25 0 -84 28 -84
40 0 9 42 47 60 53 8 3 3 5 -12 4 -15 -1 -51 -14 -80 -29z"/>
<path d="M1330 351 c0 -12 -15 -26 -42 -40 -24 -12 -37 -21 -29 -21 26 0 81
41 81 61 0 10 -2 19 -5 19 -3 0 -5 -9 -5 -19z"/>
<path d="M1971 354 c0 -11 3 -14 6 -6 3 7 2 16 -1 19 -3 4 -6 -2 -5 -13z"/>
<path d="M3349 343 c-13 -16 -12 -17 4 -4 16 13 21 21 13 21 -2 0 -10 -8 -17
-17z"/>
<path d="M2316 287 c3 -10 9 -15 12 -12 3 3 0 11 -7 18 -10 9 -11 8 -5 -6z"/>
<path d="M1380 238 c-14 -6 -44 -19 -67 -29 -22 -10 -56 -20 -75 -22 -74 -10
-118 -20 -118 -28 0 -29 207 25 265 68 33 25 32 27 -5 11z"/>
<path d="M1699 133 l-34 -38 38 34 c20 19 37 36 37 38 0 8 -8 0 -41 -34z"/>
<path d="M1035 149 c-22 -5 -152 -10 -290 -11 -244 -1 -247 -1 -130 -11 129
-11 452 5 483 23 15 8 15 9 -3 9 -11 -1 -38 -5 -60 -10z"/>
</g>
</svg>
